HIERARCHY
ROOT Hips
{
	OFFSET 0.000000 83.214638 0.000000
	CHANNELS 6 Xposition Yposition Zposition Xrotation Yrotation Zrotation
	JOINT Pelvis
	{
		OFFSET 0.000000 0.000000 0.000000
		CHANNELS 3 Xrotation Yrotation Zrotation
		JOINT LeftUpLeg
		{
			OFFSET 8.479700 -4.795502 -0.379100
			CHANNELS 3 Xrotation Yrotation Zrotation
			JOINT LeftLeg
			{
				OFFSET 0.024144 -32.555107 0.112900
				CHANNELS 3 Xrotation Yrotation Zrotation
				JOINT LeftFoot
				{
					OFFSET -0.024144 -32.638630 -3.012600
					CHANNELS 3 Xrotation Yrotation Zrotation
					JOINT LeftToeBase
					{
						OFFSET 0.970200 -13.225400 11.864200
						CHANNELS 3 Xrotation Yrotation Zrotation
						End Site
						{
							OFFSET 0.000000 12.319262 0.000000
						}
					}
					JOINT LFootTongue
					{
						OFFSET 1.142400 -1.059800 6.665200
						CHANNELS 3 Xrotation Yrotation Zrotation
						End Site
						{
							OFFSET 0.000000 12.319262 0.000000
						}
					}
				}
				JOINT LeftPantLeg
				{
					OFFSET 0.918482 -16.533964 -2.284700
					CHANNELS 3 Xrotation Yrotation Zrotation
					End Site
					{
						OFFSET 0.350399 24.744368 0.000000
					}
				}
			}
		}
		JOINT RightUpLeg
		{
			OFFSET -8.479700 -4.795502 -0.379100
			CHANNELS 3 Xrotation Yrotation Zrotation
			JOINT RightLeg
			{
				OFFSET -0.023144 -32.555092 0.112900
				CHANNELS 3 Xrotation Yrotation Zrotation
				JOINT RightFoot
				{
					OFFSET 0.023144 -32.638641 -3.012700
					CHANNELS 3 Xrotation Yrotation Zrotation
					JOINT RightToeBase
					{
						OFFSET -0.970200 -13.225400 11.864200
						CHANNELS 3 Xrotation Yrotation Zrotation
						End Site
						{
							OFFSET 0.000000 12.319244 0.000000
						}
					}
					JOINT RFootTongue
					{
						OFFSET -1.142200 -1.059800 6.665200
						CHANNELS 3 Xrotation Yrotation Zrotation
						End Site
						{
							OFFSET 0.000000 12.319243 0.000000
						}
					}
				}
				JOINT RightPantLeg
				{
					OFFSET -0.919482 -16.533978 -2.284800
					CHANNELS 3 Xrotation Yrotation Zrotation
					End Site
					{
						OFFSET -0.350400 24.744419 0.000000
					}
				}
			}
		}
	}
	JOINT Spine
	{
		OFFSET 0.000000 7.722000 1.166200
		CHANNELS 3 Xrotation Yrotation Zrotation
		JOINT Spine1
		{
			OFFSET 0.000000 12.024101 0.248800
			CHANNELS 3 Xrotation Yrotation Zrotation
			JOINT Spine2
			{
				OFFSET 0.000000 11.502998 -0.491200
				CHANNELS 3 Xrotation Yrotation Zrotation
				JOINT Neck
				{
					OFFSET 0.000000 18.430702 -3.123100
					CHANNELS 3 Xrotation Yrotation Zrotation
					JOINT Head
					{
						OFFSET 0.000000 9.051102 1.034000
						CHANNELS 3 Xrotation Yrotation Zrotation
						JOINT HairB
						{
							OFFSET 0.208400 24.786102 24.822300
							CHANNELS 3 Xrotation Yrotation Zrotation
							End Site
							{
								OFFSET 0.000000 32.263779 0.000000
							}
						}
						JOINT HairA
						{
							OFFSET -7.081100 24.428299 23.196600
							CHANNELS 3 Xrotation Yrotation Zrotation
							End Site
							{
								OFFSET 0.000000 32.263779 0.000000
							}
						}
						JOINT Hat
						{
							OFFSET 16.728800 15.048294 -15.439601
							CHANNELS 3 Xrotation Yrotation Zrotation
							End Site
							{
								OFFSET 0.000000 32.263779 0.000000
							}
						}
					}
				}
				JOINT LeftShoulder
				{
					OFFSET 6.197800 13.665199 -4.064700
					CHANNELS 3 Xrotation Yrotation Zrotation
					JOINT LeftArm
					{
						OFFSET 7.778100 -0.187103 -1.709300
						CHANNELS 3 Xrotation Yrotation Zrotation
						JOINT LeftForeArm
						{
							OFFSET 22.049376 0.000000 0.000000
							CHANNELS 3 Xrotation Yrotation Zrotation
							JOINT LeftHand
							{
								OFFSET 23.009392 0.000000 0.000000
								CHANNELS 3 Xrotation Yrotation Zrotation
								JOINT LeftHandThumb1
								{
									OFFSET 3.507191 -2.063065 3.133727
									CHANNELS 3 Xrotation Yrotation Zrotation
									JOINT LeftHandThumb2
									{
										OFFSET 3.101337 -1.790558 1.790558
										CHANNELS 3 Xrotation Yrotation Zrotation
										JOINT LeftHandThumb3
										{
											OFFSET 3.058640 -1.765907 1.765906
											CHANNELS 3 Xrotation Yrotation Zrotation
											End Site
											{
												OFFSET -0.415260 3.926476 -0.049563
											}
										}
									}
								}
								JOINT LeftHandIndex1
								{
									OFFSET 11.334419 -0.901459 3.706815
									CHANNELS 3 Xrotation Yrotation Zrotation
									JOINT LeftHandIndex2
									{
										OFFSET 3.283112 0.000000 0.000000
										CHANNELS 3 Xrotation Yrotation Zrotation
										JOINT LeftHandIndex3
										{
											OFFSET 3.323853 0.000000 0.000000
											CHANNELS 3 Xrotation Yrotation Zrotation
											End Site
											{
												OFFSET -1.135597 3.097809 0.402452
											}
										}
									}
								}
								JOINT LeftHandMiddle1
								{
									OFFSET 11.335861 0.000000 0.000000
									CHANNELS 3 Xrotation Yrotation Zrotation
									JOINT LeftHandMiddle2
									{
										OFFSET 3.410492 0.000000 0.000000
										CHANNELS 3 Xrotation Yrotation Zrotation
										JOINT LeftHandMiddle3
										{
											OFFSET 3.312172 0.000000 0.000000
											CHANNELS 3 Xrotation Yrotation Zrotation
											End Site
											{
												OFFSET -1.150200 3.080154 0.400270
											}
										}
									}
								}
								JOINT LeftHandRing1
								{
									OFFSET 11.514786 -0.013176 -3.003090
									CHANNELS 3 Xrotation Yrotation Zrotation
									JOINT LeftHandRing2
									{
										OFFSET 3.053307 0.000000 0.000000
										CHANNELS 3 Xrotation Yrotation Zrotation
										JOINT LeftHandRing3
										{
											OFFSET 3.295807 0.000000 0.000000
											CHANNELS 3 Xrotation Yrotation Zrotation
											End Site
											{
												OFFSET -1.281006 3.013344 0.375733
											}
										}
									}
								}
								JOINT LeftHandPinky1
								{
									OFFSET 10.518692 -0.960396 -5.730441
									CHANNELS 3 Xrotation Yrotation Zrotation
									JOINT LeftHandPinky2
									{
										OFFSET 2.861649 0.000000 0.000000
										CHANNELS 3 Xrotation Yrotation Zrotation
										JOINT LeftHandPinky3
										{
											OFFSET 2.863380 0.000000 0.000000
											CHANNELS 3 Xrotation Yrotation Zrotation
											End Site
											{
												OFFSET -0.843597 2.711159 0.369971
											}
										}
									}
								}
							}
							JOINT LSleeve
							{
								OFFSET 6.676277 -0.344902 -1.011730
								CHANNELS 3 Xrotation Yrotation Zrotation
								End Site
								{
									OFFSET 0.000000 14.885353 0.000000
								}
							}
						}
					}
				}
				JOINT RightShoulder
				{
					OFFSET -6.197800 13.665199 -4.064700
					CHANNELS 3 Xrotation Yrotation Zrotation
					JOINT RightArm
					{
						OFFSET -7.778100 -0.187103 -1.709300
						CHANNELS 3 Xrotation Yrotation Zrotation
						JOINT RightForeArm
						{
							OFFSET -22.049376 0.000000 0.000000
							CHANNELS 3 Xrotation Yrotation Zrotation
							JOINT RightHand
							{
								OFFSET -23.009392 0.000000 0.000000
								CHANNELS 3 Xrotation Yrotation Zrotation
								JOINT RightHandThumb1
								{
									OFFSET -3.507191 -2.063065 3.133727
									CHANNELS 3 Xrotation Yrotation Zrotation
									JOINT RightHandThumb2
									{
										OFFSET -3.101337 -1.790558 1.790558
										CHANNELS 3 Xrotation Yrotation Zrotation
										JOINT RightHandThumb3
										{
											OFFSET -3.058640 -1.765907 1.765906
											CHANNELS 3 Xrotation Yrotation Zrotation
											End Site
											{
												OFFSET 0.415260 3.926476 -0.049563
											}
										}
									}
								}
								JOINT RightHandIndex1
								{
									OFFSET -11.334419 -0.901459 3.706815
									CHANNELS 3 Xrotation Yrotation Zrotation
									JOINT RightHandIndex2
									{
										OFFSET -3.283112 0.000000 0.000000
										CHANNELS 3 Xrotation Yrotation Zrotation
										JOINT RightHandIndex3
										{
											OFFSET -3.323853 0.000000 0.000000
											CHANNELS 3 Xrotation Yrotation Zrotation
											End Site
											{
												OFFSET 1.135597 3.097809 0.402452
											}
										}
									}
								}
								JOINT RightHandMiddle1
								{
									OFFSET -11.335861 0.000000 0.000000
									CHANNELS 3 Xrotation Yrotation Zrotation
									JOINT RightHandMiddle2
									{
										OFFSET -3.410492 0.000000 0.000000
										CHANNELS 3 Xrotation Yrotation Zrotation
										JOINT RightHandMiddle3
										{
											OFFSET -3.312172 0.000000 0.000000
											CHANNELS 3 Xrotation Yrotation Zrotation
											End Site
											{
												OFFSET 1.150200 3.080154 0.400270
											}
										}
									}
								}
								JOINT RightHandRing1
								{
									OFFSET -11.514786 -0.013176 -3.003090
									CHANNELS 3 Xrotation Yrotation Zrotation
									JOINT RightHandRing2
									{
										OFFSET -3.053307 0.000000 0.000000
										CHANNELS 3 Xrotation Yrotation Zrotation
										JOINT RightHandRing3
										{
											OFFSET -3.295807 0.000000 0.000000
											CHANNELS 3 Xrotation Yrotation Zrotation
											End Site
											{
												OFFSET 1.281006 3.013344 0.375733
											}
										}
									}
								}
								JOINT RightHandPinky1
								{
									OFFSET -10.518692 -0.960396 -5.730441
									CHANNELS 3 Xrotation Yrotation Zrotation
									JOINT RightHandPinky2
									{
										OFFSET -2.861649 0.000000 0.000000
										CHANNELS 3 Xrotation Yrotation Zrotation
										JOINT RightHandPinky3
										{
											OFFSET -2.863380 0.000000 0.000000
											CHANNELS 3 Xrotation Yrotation Zrotation
											End Site
											{
												OFFSET 0.843597 2.711159 0.369971
											}
										}
									}
								}
							}
							JOINT RSleeve
							{
								OFFSET -6.676277 -0.344902 -1.011730
								CHANNELS 3 Xrotation Yrotation Zrotation
								End Site
								{
									OFFSET 0.000000 14.885353 0.000000
								}
							}
						}
					}
				}
				JOINT Backpack
				{
					OFFSET 0.000000 -2.471497 36.677502
					CHANNELS 3 Xrotation Yrotation Zrotation
					End Site
					{
						OFFSET 0.000000 20.427315 0.000000
					}
				}
				JOINT Hood
				{
					OFFSET 0.000000 18.754097 -10.431000
					CHANNELS 3 Xrotation Yrotation Zrotation
					JOINT Hood1
					{
						OFFSET 0.000000 -5.011002 -7.685901
						CHANNELS 3 Xrotation Yrotation Zrotation
						End Site
						{
							OFFSET 0.000000 9.175140 0.000000
						}
					}
				}
				JOINT LHoodieString
				{
					OFFSET 5.250500 16.397697 3.089900
					CHANNELS 3 Xrotation Yrotation Zrotation
					JOINT LHoodieString1
					{
						OFFSET 0.257700 -6.364304 3.694600
						CHANNELS 3 Xrotation Yrotation Zrotation
						JOINT LHoodieString2
						{
							OFFSET 0.000000 -9.643799 2.679100
							CHANNELS 3 Xrotation Yrotation Zrotation
							End Site
							{
								OFFSET 0.000000 10.009018 0.000000
							}
						}
					}
				}
				JOINT RHoodieString
				{
					OFFSET -5.250500 16.397697 3.089900
					CHANNELS 3 Xrotation Yrotation Zrotation
					JOINT RHoodieString1
					{
						OFFSET -0.257700 -6.364304 3.694600
						CHANNELS 3 Xrotation Yrotation Zrotation
						JOINT RHoodieString2
						{
							OFFSET 0.000000 -9.643799 2.679100
							CHANNELS 3 Xrotation Yrotation Zrotation
							End Site
							{
								OFFSET 0.000000 10.009018 0.000000
							}
						}
					}
				}
			}
			JOINT LBackpack_Strap
			{
				OFFSET 15.223200 -7.719803 -6.610900
				CHANNELS 3 Xrotation Yrotation Zrotation
				End Site
				{
					OFFSET 0.000000 16.040596 0.000000
				}
			}
			JOINT RBackpack_Strap
			{
				OFFSET -15.223000 -7.719803 -6.610900
				CHANNELS 3 Xrotation Yrotation Zrotation
				End Site
				{
					OFFSET 0.000000 16.040596 0.000000
				}
			}
		}
	}
	JOINT BoyFacialAnim_Joint
	{
		OFFSET 1.000000 -82.208099 -1.550900
		CHANNELS 3 Xrotation Yrotation Zrotation
		End Site
		{
			OFFSET 0.000000 30.012791 0.000000
		}
	}
}
MOTION
Frames: 4
Frame Time: 0.033333
0.204942 10.952843 3.423454 82.071929 -4.155198 -2.364457 -0.000001 0.000000 0.000000 -11.952316 33.667515 19.487899 23.605433 -9.027379 -10.138846 -12.214400 14.301510 25.048991 -0.000001 -0.000002 0.000001 -0.000001 -0.000002 -0.000001 -0.000001 -0.000001 0.000001 -41.395656 -39.645317 -49.629425 29.845096 -6.695880 -1.476804 -6.419463 7.336305 16.290618 0.000000 0.000000 0.000001 0.000000 0.000000 0.000001 0.000000 -0.000001 -0.000000 5.835274 -1.466258 -0.341326 -4.505673 -5.981539 1.125162 -3.978339 -6.220828 0.289841 -32.792609 -1.702238 16.058685 -6.181605 25.655049 -5.100565 0.000000 -0.000001 -0.000000 0.000000 -0.000001 -0.000000 0.000000 -0.000001 -0.000000 -32.464156 -38.489448 29.683667 -79.250842 -12.366243 -42.888718 0.000011 -47.567056 0.000018 -117.385981 17.225749 23.833180 4.709217 9.560364 3.111991 19.473187 -1.474921 7.636925 -0.000002 0.000002 0.000001 -0.212817 3.933717 -36.747145 2.942147 5.078921 -60.144597 -0.000001 0.000002 -0.000003 0.405915 5.507042 -52.453151 3.387150 5.308628 -65.057470 0.000000 0.000001 -0.000003 -0.074380 5.736775 -61.061420 4.055041 5.569508 -72.094921 -0.000003 -0.000001 -0.000004 -6.565580 4.545123 -72.425215 3.299623 5.267223 -64.107848 -0.000001 -0.000001 -0.000000 0.000000 -0.000001 -0.000001 -20.876750 19.499213 15.427022 -54.224681 48.923901 38.187779 0.000086 110.391204 -0.000083 -42.846282 -8.113265 -56.437044 8.377131 -4.904137 11.021993 21.620199 -18.183898 -18.379209 0.000000 -0.000001 0.000001 -0.920040 1.683570 12.434972 0.748122 -2.533480 32.898296 -0.000001 -0.000000 -0.000003 3.413057 -7.186268 51.650249 6.296819 -4.359585 110.634660 0.000000 0.000001 -0.000000 -3.349039 -2.600438 57.010554 5.440868 -4.590894 99.698161 0.000000 -0.000000 0.000004 -3.996443 -3.303948 64.593850 4.058863 -4.618676 82.610489 0.000001 -0.000001 0.000000 -0.000002 -0.000000 -0.000003 -0.000000 -0.000001 -0.000000 -0.000000 -0.000001 -0.000000 -0.000000 -0.000001 -0.000000 -0.000000 -0.000001 -0.000000 -0.000000 -0.000001 0.000000 0.000001 0.000001 0.000000 -0.000000 -0.000001 -0.000000 -0.000000 -0.000001 0.000000 0.000001 0.000001 0.000000 -0.000000 0.000000 0.000000 -0.000000 0.000000 0.000000 -0.000001 0.000000 0.000000 
0.247066 10.928856 3.219765 82.325691 -5.285147 -2.495521 -0.000000 0.000001 0.000000 -11.484888 33.085730 18.104301 23.498137 -7.863970 -10.109505 -14.176549 15.494672 29.835533 0.000001 -0.000000 -0.000003 0.000001 -0.000000 -0.000003 -0.000000 -0.000002 0.000001 -41.297981 -39.603237 -50.036477 28.862522 -8.227673 0.011446 -2.336568 9.134533 19.365939 -0.000000 -0.000001 -0.000001 -0.000000 -0.000001 -0.000001 0.000001 -0.000001 0.000000 5.758698 -0.173252 -2.147050 -4.498246 -5.623951 0.415064 -3.950783 -5.821242 -0.426712 -33.710214 -2.668168 17.132157 -6.509688 25.341860 -3.061830 0.000002 0.000000 -0.000001 0.000002 0.000000 -0.000001 0.000002 0.000000 -0.000001 -28.735040 -39.317557 36.297876 -74.891979 -14.759547 -39.561286 -0.000002 -47.678412 0.000005 -124.737532 10.210273 19.045988 4.060097 7.604246 2.558965 19.473182 -1.474920 7.636926 0.000000 -0.000001 -0.000000 -0.351315 3.869163 -38.332999 2.977950 5.099230 -60.548240 0.000002 0.000000 -0.000002 0.180660 5.481921 -54.874457 3.338899 5.286019 -64.535029 0.000003 -0.000000 0.000002 -0.775235 5.587073 -63.738478 4.044869 5.566237 -71.990146 0.000001 0.000003 -0.000000 -5.729467 5.066180 -73.743387 3.322310 5.278125 -64.354664 -0.000002 -0.000002 -0.000002 0.000001 -0.000000 0.000000 -21.520341 19.171450 19.912450 -51.068624 45.754802 31.456487 0.000038 112.332563 -0.000043 -44.998560 -7.485716 -51.511268 8.377130 -4.904136 11.021994 21.620202 -18.183898 -18.379213 0.000001 -0.000001 -0.000001 -0.877980 1.523394 12.343387 0.743596 -2.526476 32.795730 -0.000000 -0.000001 0.000005 3.453620 -7.249932 50.975334 6.302479 -4.357453 110.709136 0.000001 0.000001 -0.000000 -3.346850 -2.604137 57.026964 5.437905 -4.591392 99.661162 0.000002 0.000001 0.000004 -4.315335 -3.212705 65.001025 4.063826 -4.619318 82.672309 -0.000001 0.000000 -0.000003 0.000003 -0.000001 -0.000001 0.000000 -0.000001 -0.000000 0.000000 -0.000001 -0.000000 0.000000 -0.000001 -0.000000 0.000000 -0.000001 -0.000000 0.000000 -0.000001 -0.000000 0.000001 -0.000001 -0.000000 0.000000 -0.000001 -0.000000 0.000000 -0.000001 -0.000000 0.000001 -0.000001 -0.000000 -0.000000 0.000000 -0.000000 -0.000000 0.000000 -0.000000 -0.000000 0.000001 0.000000 
0.600022 10.947807 3.236427 82.632161 -6.458865 -2.590457 0.000000 0.000000 0.000000 -11.013983 34.554740 17.319529 22.574680 -6.852411 -10.166001 -12.842864 14.273197 28.937838 0.000001 -0.000001 -0.000000 0.000001 -0.000001 -0.000001 0.000000 -0.000000 -0.000000 -41.817444 -39.414197 -49.672015 28.387531 -9.374015 0.425680 0.527631 6.374556 21.243661 -0.000000 -0.000002 -0.000000 -0.000000 -0.000002 -0.000000 0.000000 0.000001 -0.000001 5.517385 0.645905 -3.285133 -4.693391 -5.139410 0.271385 -4.068628 -5.338573 -0.534752 -34.189724 -2.611803 16.602634 -7.978980 24.675614 -2.126989 0.000002 0.000001 0.000000 0.000002 0.000001 0.000000 0.000002 0.000001 0.000000 -27.288458 -39.415324 38.173914 -69.406108 -15.771417 -34.743086 -0.000020 -51.348310 -0.000015 -131.977164 4.296255 16.400515 3.404096 5.654641 1.976859 19.473180 -1.474919 7.636928 -0.000000 0.000001 -0.000001 0.121821 4.445494 -37.905132 2.996343 5.109526 -60.755086 -0.000003 -0.000001 -0.000004 0.439227 5.662584 -54.859851 3.356460 5.294294 -64.725181 0.000007 0.000003 0.000004 -0.695969 5.616973 -63.634045 4.093185 5.581634 -72.487698 -0.000002 -0.000003 0.000001 -4.262219 5.324154 -72.688451 3.349567 5.291069 -64.650582 0.000000 -0.000001 -0.000000 0.000001 0.000001 -0.000002 -21.392644 18.401206 19.879459 -51.548578 42.593801 32.177954 0.000034 113.525366 -0.000034 -44.909464 -8.102974 -46.060006 8.377131 -4.904136 11.021996 21.620204 -18.183897 -18.379214 0.000001 0.000000 0.000001 -0.920681 1.614232 12.607341 0.749676 -2.535840 32.933120 0.000001 -0.000002 0.000002 3.638596 -7.390552 51.131223 6.306153 -4.356071 110.757630 0.000001 0.000001 -0.000000 -3.202617 -2.782109 57.651093 5.420967 -4.594262 99.449754 0.000001 0.000001 0.000000 -4.666943 -3.328776 66.784968 4.066805 -4.619675 82.709124 -0.000001 -0.000000 0.000002 -0.000001 0.000000 -0.000003 0.000001 -0.000000 -0.000000 0.000001 -0.000000 -0.000000 0.000001 -0.000000 -0.000000 0.000001 -0.000000 -0.000000 0.000001 -0.000000 -0.000000 0.000001 0.000001 0.000000 0.000001 -0.000000 -0.000000 0.000001 -0.000000 -0.000000 0.000001 0.000001 0.000000 -0.000001 0.000000 -0.000000 -0.000001 0.000000 -0.000000 0.000000 0.000000 0.000000 
1.255383 10.905548 3.472420 83.318930 -7.904262 -2.568764 0.000000 0.000000 0.000000 -10.372128 35.098785 15.915362 21.380203 -7.099807 -10.264629 -10.075490 15.514582 24.876048 -0.000000 -0.000001 0.000001 -0.000000 -0.000001 -0.000000 -0.000001 0.000000 -0.000001 -42.407125 -38.749487 -47.960024 27.712475 -10.705656 -0.559888 2.321161 1.770530 23.420309 -0.000001 0.000002 -0.000001 -0.000001 0.000002 -0.000001 -0.000000 0.000001 0.000000 4.404920 0.931206 -3.920994 -4.638085 -4.631057 0.600043 -3.929427 -4.849460 -0.216411 -35.213600 -2.402508 15.659221 -8.026417 24.138049 -3.048320 0.000001 -0.000001 0.000000 0.000001 -0.000001 0.000000 0.000001 -0.000001 0.000000 -28.431392 -38.295153 36.285622 -63.606567 -16.131795 -29.606531 -0.000039 -56.604465 -0.000026 -138.999582 -1.275952 14.569434 3.060850 4.655652 1.668926 19.473184 -1.474921 7.636928 -0.000002 -0.000004 0.000001 0.949320 5.474164 -35.495154 3.007350 5.115644 -60.878507 -0.000004 -0.000000 -0.000004 1.124735 6.064770 -52.662176 3.440559 5.333028 -65.633323 0.000002 0.000001 0.000000 0.033078 5.796668 -61.070969 4.210694 5.617200 -73.692038 0.000000 0.000002 -0.000000 -2.280661 5.575838 -69.725474 3.383284 5.306833 -65.015676 -0.000002 -0.000001 -0.000000 -0.000001 0.000000 -0.000001 -20.727170 16.585596 16.335118 -54.026410 40.391727 37.991261 0.000043 114.073195 -0.000038 -43.528970 -8.804785 -41.005830 8.377130 -4.904137 11.021992 21.620199 -18.183897 -18.379209 0.000002 -0.000001 -0.000000 -0.962925 1.556173 13.223459 0.736596 -2.515604 32.636734 -0.000001 0.000000 0.000005 3.697461 -7.391234 52.004753 6.308294 -4.355245 110.785839 0.000001 0.000001 0.000002 -3.145003 -2.830116 57.736238 5.413286 -4.595499 99.353810 -0.000000 -0.000000 0.000004 -4.452116 -3.373860 66.471346 4.084036 -4.621861 82.923134 -0.000000 -0.000000 -0.000003 0.000000 -0.000001 -0.000001 -0.000001 0.000001 0.000000 -0.000001 0.000001 0.000000 -0.000001 0.000001 0.000000 -0.000001 0.000001 0.000000 -0.000001 0.000001 -0.000000 -0.000000 0.000001 -0.000000 -0.000001 0.000001 0.000000 -0.000001 0.000001 -0.000000 -0.000000 0.000001 -0.000000 -0.000000 0.000001 0.000001 -0.000000 0.000001 0.000001 0.000000 0.000000 0.000000 
